<svg viewBox="0 0 512 512" xmlns="http://www.w3.org/2000/svg">
 <path d="m248.68 0.12305c-43.708 1.2124-87.481 13.601-126.82 37.809-104.91 64.553-149.02 195.12-104.74 310.08 44.281 114.95 164.58 182.19 285.69 159.67 121.11-22.521 209.2-128.51 209.2-251.7a23.805 23.805 0 0 0-23.805-23.807 23.805 23.805 0 0 0-23.807 23.807c0 100.56-71.435 186.5-170.29 204.89-98.854 18.383-196.41-36.137-232.55-129.97s-0.38052-199.72 85.258-252.41c85.638-52.693 196.27-36.887 263.73 37.68a23.805 23.805 0 0 0 33.623 1.6816 23.805 23.805 0 0 0 1.6836-33.623c-51.651-57.094-124.31-86.118-197.16-84.098z"/>
</svg>
