<?xml version="1.0" encoding="UTF-8"?>
<svg width="148.02" height="70.4" version="1.1" viewBox="0 0 148.02 70.4" xml:space="preserve" xmlns="http://www.w3.org/2000/svg" xmlns:cc="http://creativecommons.org/ns#" xmlns:dc="http://purl.org/dc/elements/1.1/" xmlns:rdf="http://www.w3.org/1999/02/22-rdf-syntax-ns#"><metadata><rdf:RDF><cc:Work rdf:about=""><dc:format>image/svg+xml</dc:format><dc:type rdf:resource="http://purl.org/dc/dcmitype/StillImage"/><dc:title/></cc:Work></rdf:RDF></metadata>
<style type="text/css">
	.st0{fill:transparent;}
	.st1{fill:#063A59;}
	.st2{fill:#F58320;}
	.st3{fill:#F5831F;}
</style>
<rect class="st0" x="-141.99" y="-163.85" width="432" height="432"/>
<g transform="translate(-141.99,-163.85)">





					<path class="st1" d="m215.34 234.25c-22.7-14.39-46.98-20.69-73.35-16.17 1.36-3.79 2.69-7.47 4.13-11.46 23.78 1.51 46.97 7.23 67.51 21.82 1.29 0.92 2.08 2.6 3.11 3.93-0.47 0.63-0.93 1.25-1.4 1.88z"/>
					<path class="st1" d="m151.5 204.37c1.4-2.32 2.57-4.25 3.74-6.18 21.89 2.14 41.16 10.12 57 26.25-18.54-11.9-38.7-18.48-60.74-20.07z"/>
					<path class="st1" d="m162.86 196.78c1.21-2.08 2.27-3.91 3.37-5.82 16.14 5.76 31.16 13.5 43.01 26.96-13.51-11.59-29.12-18.17-46.38-21.14z"/>




					<path class="st1" d="m216.66 234.25c22.7-14.39 46.98-20.69 73.35-16.17-1.36-3.79-2.69-7.47-4.13-11.46-23.78 1.51-46.97 7.23-67.51 21.82-1.29 0.92-2.08 2.6-3.11 3.93 0.47 0.63 0.93 1.25 1.4 1.88z"/>
					<path class="st1" d="m280.5 204.37c-1.4-2.32-2.57-4.25-3.74-6.18-21.89 2.14-41.16 10.12-57 26.25 18.54-11.9 38.7-18.48 60.74-20.07z"/>
					<path class="st1" d="m269.14 196.78c-1.21-2.08-2.27-3.91-3.37-5.82-16.14 5.76-31.16 13.5-43.01 26.96 13.51-11.59 29.12-18.17 46.38-21.14z"/>




			<path class="st3" d="m221.38 188.17c0.28 3.82-1.79 6.85-3.22 10.08-1.48 3.35-1.6 6.76-0.38 10.47-2.37-1.69-3.66-3.77-4.47-6.21-1.68-5.08-0.62-9.81 1.81-14.38 1.31-2.47 2.57-4.96 3.75-7.48 0.58-1.25 0.94-2.61 1.47-4.13 0.66 1.04 1.24 1.93 1.81 2.83 2.59 4.1 5.23 8.17 6.9 12.77 1.61 4.44 2.16 8.94 0.33 13.44-2.48 6.11-9.72 11.87-19.05 7.94 1.68-0.18 3.45-0.24 5.16-0.59 4.35-0.89 7.07-3.65 8.35-7.81 1.63-5.31 1.32-10.52-1.17-15.53-0.25-0.51-0.65-0.95-0.98-1.43-0.09 0-0.2 0.01-0.31 0.03z"/>
			<path class="st3" d="m216.9 163.85c1.43 4.65 1.21 9.26-0.44 13.75-0.76 2.08-1.8 4.07-2.87 6.02-2.33 4.26-4.12 8.68-4.25 13.61-0.13 4.86 1.31 9.12 4.87 12.56 0.21 0.2 0.37 0.44 0.57 0.69-5.47 1.85-11.57-1.79-13.02-7.65-1.05-4.26-0.68-8.42 1.38-12.22 2.38-4.4 5.12-8.62 7.79-12.87 2.03-3.22 4.07-6.43 5.14-10.12 0.34-1.2 0.54-2.45 0.83-3.77z"/>


</g>
</svg>
